<mxfile host="app.diagrams.net" agent="Mozilla/5.0 (Windows NT 10.0; Win64; x64) AppleWebKit/537.36 (KHTML, like Gecko) Chrome/131.0.0.0 Safari/537.36" version="25.0.1">
  <diagram id="C5RBs43oDa-KdzZeNtuy" name="Page-1">
    <mxGraphModel dx="1434" dy="746" grid="1" gridSize="10" guides="1" tooltips="1" connect="1" arrows="1" fold="1" page="1" pageScale="1" pageWidth="827" pageHeight="1169" math="0" shadow="0">
      <root>
        <mxCell id="WIyWlLk6GJQsqaUBKTNV-0" />
        <mxCell id="WIyWlLk6GJQsqaUBKTNV-1" parent="WIyWlLk6GJQsqaUBKTNV-0" />
        <mxCell id="QqlxLtSXjk_3ugFP-hrV-0" value="&lt;b&gt;SimulationObject&lt;/b&gt;" style="swimlane;fontStyle=0;align=center;verticalAlign=top;childLayout=stackLayout;horizontal=1;startSize=26;horizontalStack=0;resizeParent=1;resizeParentMax=0;resizeLast=0;collapsible=1;marginBottom=0;whiteSpace=wrap;html=1;rounded=0;labelBackgroundColor=none;fillColor=#F2CC8F;strokeColor=#E07A5F;fontColor=#393C56;" parent="WIyWlLk6GJQsqaUBKTNV-1" vertex="1">
          <mxGeometry x="370" y="245" width="190" height="160" as="geometry" />
        </mxCell>
        <mxCell id="QqlxLtSXjk_3ugFP-hrV-1" value="+ objectMatterJs: MatterJs.Body&lt;div&gt;+ width: double&lt;/div&gt;&lt;div&gt;+ height: double&lt;/div&gt;" style="text;align=left;verticalAlign=top;spacingLeft=4;spacingRight=4;overflow=hidden;rotatable=0;points=[[0,0.5],[1,0.5]];portConstraint=eastwest;whiteSpace=wrap;html=1;rounded=0;labelBackgroundColor=none;fontStyle=0;" parent="QqlxLtSXjk_3ugFP-hrV-0" vertex="1">
          <mxGeometry y="26" width="190" height="54" as="geometry" />
        </mxCell>
        <mxCell id="QqlxLtSXjk_3ugFP-hrV-2" value="" style="line;strokeWidth=1;fillColor=none;align=left;verticalAlign=middle;spacingTop=-1;spacingLeft=3;spacingRight=3;rotatable=0;labelPosition=right;points=[];portConstraint=eastwest;strokeColor=#E07A5F;rounded=0;labelBackgroundColor=none;fontColor=#393C56;fontStyle=0" parent="QqlxLtSXjk_3ugFP-hrV-0" vertex="1">
          <mxGeometry y="80" width="190" height="8" as="geometry" />
        </mxCell>
        <mxCell id="QqlxLtSXjk_3ugFP-hrV-3" value="&lt;div&gt;+ place(x, y): void&lt;/div&gt;&lt;div&gt;+ getX() : int&lt;/div&gt;&lt;div&gt;+ getY() : int&lt;/div&gt;&lt;div&gt;+ getAngle() : double&lt;br&gt;&lt;/div&gt;" style="text;align=left;verticalAlign=top;spacingLeft=4;spacingRight=4;overflow=hidden;rotatable=0;points=[[0,0.5],[1,0.5]];portConstraint=eastwest;whiteSpace=wrap;html=1;rounded=0;labelBackgroundColor=none;fontStyle=0;" parent="QqlxLtSXjk_3ugFP-hrV-0" vertex="1">
          <mxGeometry y="88" width="190" height="72" as="geometry" />
        </mxCell>
        <mxCell id="QqlxLtSXjk_3ugFP-hrV-4" value="&lt;b&gt;Wheel&lt;/b&gt;" style="swimlane;fontStyle=0;align=center;verticalAlign=top;childLayout=stackLayout;horizontal=1;startSize=26;horizontalStack=0;resizeParent=1;resizeParentMax=0;resizeLast=0;collapsible=1;marginBottom=0;whiteSpace=wrap;html=1;rounded=0;labelBackgroundColor=none;fillColor=#F2CC8F;strokeColor=#E07A5F;fontColor=#393C56;" parent="WIyWlLk6GJQsqaUBKTNV-1" vertex="1">
          <mxGeometry x="50" y="745" width="220" height="120" as="geometry" />
        </mxCell>
        <mxCell id="eOT9KIBpFIWEf8Cm63II-1" value="&amp;nbsp;- speed : int&lt;div&gt;&amp;nbsp;- direction : int&lt;/div&gt;" style="text;html=1;align=left;verticalAlign=middle;resizable=0;points=[];autosize=1;" parent="QqlxLtSXjk_3ugFP-hrV-4" vertex="1">
          <mxGeometry y="26" width="220" height="40" as="geometry" />
        </mxCell>
        <mxCell id="QqlxLtSXjk_3ugFP-hrV-6" value="" style="line;strokeWidth=1;fillColor=none;align=left;verticalAlign=middle;spacingTop=-1;spacingLeft=3;spacingRight=3;rotatable=0;labelPosition=right;points=[];portConstraint=eastwest;strokeColor=#E07A5F;rounded=0;labelBackgroundColor=none;fontColor=#393C56;fontStyle=0" parent="QqlxLtSXjk_3ugFP-hrV-4" vertex="1">
          <mxGeometry y="66" width="220" height="4" as="geometry" />
        </mxCell>
        <mxCell id="QqlxLtSXjk_3ugFP-hrV-7" value="+ setSpeed(int power): void&lt;div&gt;+ setDirection(int direction) : void&lt;/div&gt;" style="text;align=left;verticalAlign=top;spacingLeft=4;spacingRight=4;overflow=hidden;rotatable=0;points=[[0,0.5],[1,0.5]];portConstraint=eastwest;whiteSpace=wrap;html=1;rounded=0;labelBackgroundColor=none;fontStyle=0;" parent="QqlxLtSXjk_3ugFP-hrV-4" vertex="1">
          <mxGeometry y="70" width="220" height="50" as="geometry" />
        </mxCell>
        <mxCell id="QqlxLtSXjk_3ugFP-hrV-8" value="&lt;b&gt;Robot&lt;span style=&quot;color: rgba(0, 0, 0, 0); font-family: monospace; font-size: 0px; text-align: start; text-wrap-mode: nowrap;&quot;&gt;%3CmxGraphModel%3E%3Croot%3E%3CmxCell%20id%3D%220%22%2F%3E%3CmxCell%20id%3D%221%22%20parent%3D%220%22%2F%3E%3CmxCell%20id%3D%222%22%20value%3D%22Roue%26lt%3Bspan%20style%3D%26quot%3Bcolor%3A%20rgba(0%2C%200%2C%200%2C%200)%3B%20font-family%3A%20monospace%3B%20font-size%3A%200px%3B%20font-weight%3A%20400%3B%20text-align%3A%20start%3B%20text-wrap-mode%3A%20nowrap%3B%26quot%3B%26gt%3B%253CmxGraphModel%253E%253Croot%253E%253CmxCell%2520id%253D%25220%2522%252F%253E%253CmxCell%2520id%253D%25221%2522%2520parent%253D%25220%2522%252F%253E%253CmxCell%2520id%253D%25222%2522%2520value%253D%2522Objet%2522%2520style%253D%2522swimlane%253BfontStyle%253D1%253Balign%253Dcenter%253BverticalAlign%253Dtop%253BchildLayout%253DstackLayout%253Bhorizontal%253D1%253BstartSize%253D26%253BhorizontalStack%253D0%253BresizeParent%253D1%253BresizeParentMax%253D0%253BresizeLast%253D0%253Bcollapsible%253D1%253BmarginBottom%253D0%253BwhiteSpace%253Dwrap%253Bhtml%253D1%253B%2522%2520vertex%253D%25221%2522%2520parent%253D%25221%2522%253E%253CmxGeometry%2520x%253D%2522230%2522%2520y%253D%2522150%2522%2520width%253D%2522160%2522%2520height%253D%252286%2522%2520as%253D%2522geometry%2522%252F%253E%253C%252FmxCell%253E%253CmxCell%2520id%253D%25223%2522%2520value%253D%2522%252B%2520field%253A%2520type%2522%2520style%253D%2522text%253BstrokeColor%253Dnone%253BfillColor%253Dnone%253Balign%253Dleft%253BverticalAlign%253Dtop%253BspacingLeft%253D4%253BspacingRight%253D4%253Boverflow%253Dhidden%253Brotatable%253D0%253Bpoints%253D%255B%255B0%252C0.5%255D%252C%255B1%252C0.5%255D%255D%253BportConstraint%253Deastwest%253BwhiteSpace%253Dwrap%253Bhtml%253D1%253B%2522%2520vertex%253D%25221%2522%2520parent%253D%25222%2522%253E%253CmxGeometry%2520y%253D%252226%2522%2520width%253D%2522160%2522%2520height%253D%252226%2522%2520as%253D%2522geometry%2522%252F%253E%253C%252FmxCell%253E%253CmxCell%2520id%253D%25224%2522%2520value%253D%2522%2522%2520style%253D%2522line%253BstrokeWidth%253D1%253BfillColor%253Dnone%253Balign%253Dleft%253BverticalAlign%253Dmiddle%253BspacingTop%253D-1%253BspacingLeft%253D3%253BspacingRight%253D3%253Brotatable%253D0%253BlabelPosition%253Dright%253Bpoints%253D%255B%255D%253BportConstraint%253Deastwest%253BstrokeColor%253Dinherit%253B%2522%2520vertex%253D%25221%2522%2520parent%253D%25222%2522%253E%253CmxGeometry%2520y%253D%252252%2522%2520width%253D%2522160%2522%2520height%253D%25228%2522%2520as%253D%2522geometry%2522%252F%253E%253C%252FmxCell%253E%253CmxCell%2520id%253D%25225%2522%2520value%253D%2522%252B%2520method(type)%253A%2520type%2522%2520style%253D%2522text%253BstrokeColor%253Dnone%253BfillColor%253Dnone%253Balign%253Dleft%253BverticalAlign%253Dtop%253BspacingLeft%253D4%253BspacingRight%253D4%253Boverflow%253Dhidden%253Brotatable%253D0%253Bpoints%253D%255B%255B0%252C0.5%255D%252C%255B1%252C0.5%255D%255D%253BportConstraint%253Deastwest%253BwhiteSpace%253Dwrap%253Bhtml%253D1%253B%2522%2520vertex%253D%25221%2522%2520parent%253D%25222%2522%253E%253CmxGeometry%2520y%253D%252260%2522%2520width%253D%2522160%2522%2520height%253D%252226%2522%2520as%253D%2522geometry%2522%252F%253E%253C%252FmxCell%253E%253C%252Froot%253E%253C%252FmxGraphModel%253E%26lt%3B%2Fspan%26gt%3B%22%20style%3D%22swimlane%3BfontStyle%3D1%3Balign%3Dcenter%3BverticalAlign%3Dtop%3BchildLayout%3DstackLayout%3Bhorizontal%3D1%3BstartSize%3D26%3BhorizontalStack%3D0%3BresizeParent%3D1%3BresizeParentMax%3D0%3BresizeLast%3D0%3Bcollapsible%3D1%3BmarginBottom%3D0%3BwhiteSpace%3Dwrap%3Bhtml%3D1%3B%22%20vertex%3D%221%22%20parent%3D%221%22%3E%3CmxGeometry%20x%3D%2270%22%20y%3D%22290%22%20width%3D%22160%22%20height%3D%2286%22%20as%3D%22geometry%22%2F%3E%3C%2FmxCell%3E%3CmxCell%20id%3D%223%22%20value%3D%22%2B%20field%3A%20type%22%20style%3D%22text%3BstrokeColor%3Dnone%3BfillColor%3Dnone%3Balign%3Dleft%3BverticalAlign%3Dtop%3BspacingLeft%3D4%3BspacingRight%3D4%3Boverflow%3Dhidden%3Brotatable%3D0%3Bpoints%3D%5B%5B0%2C0.5%5D%2C%5B1%2C0.5%5D%5D%3BportConstraint%3Deastwest%3BwhiteSpace%3Dwrap%3Bhtml%3D1%3B%22%20vertex%3D%221%22%20parent%3D%222%22%3E%3CmxGeometry%20y%3D%2226%22%20width%3D%22160%22%20height%3D%2226%22%20as%3D%22geometry%22%2F%3E%3C%2FmxCell%3E%3CmxCell%20id%3D%224%22%20value%3D%22%22%20style%3D%22line%3BstrokeWidth%3D1%3BfillColor%3Dnone%3Balign%3Dleft%3BverticalAlign%3Dmiddle%3BspacingTop%3D-1%3BspacingLeft%3D3%3BspacingRight%3D3%3Brotatable%3D0%3BlabelPosition%3Dright%3Bpoints%3D%5B%5D%3BportConstraint%3Deastwest%3BstrokeColor%3Dinherit%3B%22%20vertex%3D%221%22%20parent%3D%222%22%3E%3CmxGeometry%20y%3D%2252%22%20width%3D%22160%22%20height%3D%228%22%20as%3D%22geometry%22%2F%3E%3C%2FmxCell%3E%3CmxCell%20id%3D%225%22%20value%3D%22%2B%20method(type)%3A%20type%22%20style%3D%22text%3BstrokeColor%3Dnone%3BfillColor%3Dnone%3Balign%3Dleft%3BverticalAlign%3Dtop%3BspacingLeft%3D4%3BspacingRight%3D4%3Boverflow%3Dhidden%3Brotatable%3D0%3Bpoints%3D%5B%5B0%2C0.5%5D%2C%5B1%2C0.5%5D%5D%3BportConstraint%3Deastwest%3BwhiteSpace%3Dwrap%3Bhtml%3D1%3B%22%20vertex%3D%221%22%20parent%3D%222%22%3E%3CmxGeometry%20y%3D%2260%22%20width%3D%22160%22%20height%3D%2226%22%20as%3D%22geometry%22%2F%3E%3C%2FmxCell%3E%3C%2Froot%3E%3C%2FmxGraphModel%3E&lt;/span&gt;&lt;span style=&quot;color: rgba(0, 0, 0, 0); font-family: monospace; font-size: 0px; text-align: start; text-wrap-mode: nowrap;&quot;&gt;%3CmxGraphModel%3E%3Croot%3E%3CmxCell%20id%3D%220%22%2F%3E%3CmxCell%20id%3D%221%22%20parent%3D%220%22%2F%3E%3CmxCell%20id%3D%222%22%20value%3D%22Roue%26lt%3Bspan%20style%3D%26quot%3Bcolor%3A%20rgba(0%2C%200%2C%200%2C%200)%3B%20font-family%3A%20monospace%3B%20font-size%3A%200px%3B%20font-weight%3A%20400%3B%20text-align%3A%20start%3B%20text-wrap-mode%3A%20nowrap%3B%26quot%3B%26gt%3B%253CmxGraphModel%253E%253Croot%253E%253CmxCell%2520id%253D%25220%2522%252F%253E%253CmxCell%2520id%253D%25221%2522%2520parent%253D%25220%2522%252F%253E%253CmxCell%2520id%253D%25222%2522%2520value%253D%2522Objet%2522%2520style%253D%2522swimlane%253BfontStyle%253D1%253Balign%253Dcenter%253BverticalAlign%253Dtop%253BchildLayout%253DstackLayout%253Bhorizontal%253D1%253BstartSize%253D26%253BhorizontalStack%253D0%253BresizeParent%253D1%253BresizeParentMax%253D0%253BresizeLast%253D0%253Bcollapsible%253D1%253BmarginBottom%253D0%253BwhiteSpace%253Dwrap%253Bhtml%253D1%253B%2522%2520vertex%253D%25221%2522%2520parent%253D%25221%2522%253E%253CmxGeometry%2520x%253D%2522230%2522%2520y%253D%2522150%2522%2520width%253D%2522160%2522%2520height%253D%252286%2522%2520as%253D%2522geometry%2522%252F%253E%253C%252FmxCell%253E%253CmxCell%2520id%253D%25223%2522%2520value%253D%2522%252B%2520field%253A%2520type%2522%2520style%253D%2522text%253BstrokeColor%253Dnone%253BfillColor%253Dnone%253Balign%253Dleft%253BverticalAlign%253Dtop%253BspacingLeft%253D4%253BspacingRight%253D4%253Boverflow%253Dhidden%253Brotatable%253D0%253Bpoints%253D%255B%255B0%252C0.5%255D%252C%255B1%252C0.5%255D%255D%253BportConstraint%253Deastwest%253BwhiteSpace%253Dwrap%253Bhtml%253D1%253B%2522%2520vertex%253D%25221%2522%2520parent%253D%25222%2522%253E%253CmxGeometry%2520y%253D%252226%2522%2520width%253D%2522160%2522%2520height%253D%252226%2522%2520as%253D%2522geometry%2522%252F%253E%253C%252FmxCell%253E%253CmxCell%2520id%253D%25224%2522%2520value%253D%2522%2522%2520style%253D%2522line%253BstrokeWidth%253D1%253BfillColor%253Dnone%253Balign%253Dleft%253BverticalAlign%253Dmiddle%253BspacingTop%253D-1%253BspacingLeft%253D3%253BspacingRight%253D3%253Brotatable%253D0%253BlabelPosition%253Dright%253Bpoints%253D%255B%255D%253BportConstraint%253Deastwest%253BstrokeColor%253Dinherit%253B%2522%2520vertex%253D%25221%2522%2520parent%253D%25222%2522%253E%253CmxGeometry%2520y%253D%252252%2522%2520width%253D%2522160%2522%2520height%253D%25228%2522%2520as%253D%2522geometry%2522%252F%253E%253C%252FmxCell%253E%253CmxCell%2520id%253D%25225%2522%2520value%253D%2522%252B%2520method(type)%253A%2520type%2522%2520style%253D%2522text%253BstrokeColor%253Dnone%253BfillColor%253Dnone%253Balign%253Dleft%253BverticalAlign%253Dtop%253BspacingLeft%253D4%253BspacingRight%253D4%253Boverflow%253Dhidden%253Brotatable%253D0%253Bpoints%253D%255B%255B0%252C0.5%255D%252C%255B1%252C0.5%255D%255D%253BportConstraint%253Deastwest%253BwhiteSpace%253Dwrap%253Bhtml%253D1%253B%2522%2520vertex%253D%25221%2522%2520parent%253D%25222%2522%253E%253CmxGeometry%2520y%253D%252260%2522%2520width%253D%2522160%2522%2520height%253D%252226%2522%2520as%253D%2522geometry%2522%252F%253E%253C%252FmxCell%253E%253C%252Froot%253E%253C%252FmxGraphModel%253E%26lt%3B%2Fspan%26gt%3B%22%20style%3D%22swimlane%3BfontStyle%3D1%3Balign%3Dcenter%3BverticalAlign%3Dtop%3BchildLayout%3DstackLayout%3Bhorizontal%3D1%3BstartSize%3D26%3BhorizontalStack%3D0%3BresizeParent%3D1%3BresizeParentMax%3D0%3BresizeLast%3D0%3Bcollapsible%3D1%3BmarginBottom%3D0%3BwhiteSpace%3Dwrap%3Bhtml%3D1%3B%22%20vertex%3D%221%22%20parent%3D%221%22%3E%3CmxGeometry%20x%3D%2270%22%20y%3D%22290%22%20width%3D%22160%22%20height%3D%2286%22%20as%3D%22geometry%22%2F%3E%3C%2FmxCell%3E%3CmxCell%20id%3D%223%22%20value%3D%22%2B%20field%3A%20type%22%20style%3D%22text%3BstrokeColor%3Dnone%3BfillColor%3Dnone%3Balign%3Dleft%3BverticalAlign%3Dtop%3BspacingLeft%3D4%3BspacingRight%3D4%3Boverflow%3Dhidden%3Brotatable%3D0%3Bpoints%3D%5B%5B0%2C0.5%5D%2C%5B1%2C0.5%5D%5D%3BportConstraint%3Deastwest%3BwhiteSpace%3Dwrap%3Bhtml%3D1%3B%22%20vertex%3D%221%22%20parent%3D%222%22%3E%3CmxGeometry%20y%3D%2226%22%20width%3D%22160%22%20height%3D%2226%22%20as%3D%22geometry%22%2F%3E%3C%2FmxCell%3E%3CmxCell%20id%3D%224%22%20value%3D%22%22%20style%3D%22line%3BstrokeWidth%3D1%3BfillColor%3Dnone%3Balign%3Dleft%3BverticalAlign%3Dmiddle%3BspacingTop%3D-1%3BspacingLeft%3D3%3BspacingRight%3D3%3Brotatable%3D0%3BlabelPosition%3Dright%3Bpoints%3D%5B%5D%3BportConstraint%3Deastwest%3BstrokeColor%3Dinherit%3B%22%20vertex%3D%221%22%20parent%3D%222%22%3E%3CmxGeometry%20y%3D%2252%22%20width%3D%22160%22%20height%3D%228%22%20as%3D%22geometry%22%2F%3E%3C%2FmxCell%3E%3CmxCell%20id%3D%225%22%20value%3D%22%2B%20method(type)%3A%20type%22%20style%3D%22text%3BstrokeColor%3Dnone%3BfillColor%3Dnone%3Balign%3Dleft%3BverticalAlign%3Dtop%3BspacingLeft%3D4%3BspacingRight%3D4%3Boverflow%3Dhidden%3Brotatable%3D0%3Bpoints%3D%5B%5B0%2C0.5%5D%2C%5B1%2C0.5%5D%5D%3BportConstraint%3Deastwest%3BwhiteSpace%3Dwrap%3Bhtml%3D1%3B%22%20vertex%3D%221%22%20parent%3D%222%22%3E%3CmxGeometry%20y%3D%2260%22%20width%3D%22160%22%20height%3D%2226%22%20as%3D%22geometry%22%2F%3E%3C%2FmxCell%3E%3C%2Froot%3E%3C%2FmxGraphModel%3E&lt;/span&gt;&lt;/b&gt;" style="swimlane;fontStyle=0;align=center;verticalAlign=top;childLayout=stackLayout;horizontal=1;startSize=26;horizontalStack=0;resizeParent=1;resizeParentMax=0;resizeLast=0;collapsible=1;marginBottom=0;whiteSpace=wrap;html=1;rounded=0;labelBackgroundColor=none;fillColor=#F2CC8F;strokeColor=#E07A5F;fontColor=#393C56;" parent="WIyWlLk6GJQsqaUBKTNV-1" vertex="1">
          <mxGeometry x="65" y="455" width="190" height="120" as="geometry" />
        </mxCell>
        <mxCell id="QqlxLtSXjk_3ugFP-hrV-9" value="+ id: int" style="text;align=left;verticalAlign=top;spacingLeft=4;spacingRight=4;overflow=hidden;rotatable=0;points=[[0,0.5],[1,0.5]];portConstraint=eastwest;whiteSpace=wrap;html=1;rounded=0;labelBackgroundColor=none;fontStyle=0;" parent="QqlxLtSXjk_3ugFP-hrV-8" vertex="1">
          <mxGeometry y="26" width="190" height="26" as="geometry" />
        </mxCell>
        <mxCell id="QqlxLtSXjk_3ugFP-hrV-10" value="" style="line;strokeWidth=1;fillColor=none;align=left;verticalAlign=middle;spacingTop=-1;spacingLeft=3;spacingRight=3;rotatable=0;labelPosition=right;points=[];portConstraint=eastwest;strokeColor=#E07A5F;rounded=0;labelBackgroundColor=none;fontColor=#393C56;fontStyle=0" parent="QqlxLtSXjk_3ugFP-hrV-8" vertex="1">
          <mxGeometry y="52" width="190" height="8" as="geometry" />
        </mxCell>
        <mxCell id="QqlxLtSXjk_3ugFP-hrV-11" value="+ move(leftSpeed, leftTime, rightSpeed, rightTime) : void" style="text;align=left;verticalAlign=top;spacingLeft=4;spacingRight=4;overflow=hidden;rotatable=0;points=[[0,0.5],[1,0.5]];portConstraint=eastwest;whiteSpace=wrap;html=1;rounded=0;labelBackgroundColor=none;fontStyle=0;" parent="QqlxLtSXjk_3ugFP-hrV-8" vertex="1">
          <mxGeometry y="60" width="190" height="60" as="geometry" />
        </mxCell>
        <mxCell id="QqlxLtSXjk_3ugFP-hrV-12" value="&lt;b&gt;Hole&lt;/b&gt;" style="swimlane;fontStyle=0;align=center;verticalAlign=top;childLayout=stackLayout;horizontal=1;startSize=26;horizontalStack=0;resizeParent=1;resizeParentMax=0;resizeLast=0;collapsible=1;marginBottom=0;whiteSpace=wrap;html=1;rounded=0;labelBackgroundColor=none;fillColor=#F2CC8F;strokeColor=#E07A5F;fontColor=#393C56;" parent="WIyWlLk6GJQsqaUBKTNV-1" vertex="1">
          <mxGeometry x="615" y="455" width="160" height="34" as="geometry" />
        </mxCell>
        <mxCell id="QqlxLtSXjk_3ugFP-hrV-14" value="" style="line;strokeWidth=1;fillColor=none;align=left;verticalAlign=middle;spacingTop=-1;spacingLeft=3;spacingRight=3;rotatable=0;labelPosition=right;points=[];portConstraint=eastwest;strokeColor=#E07A5F;rounded=0;labelBackgroundColor=none;fontColor=#393C56;fontStyle=0" parent="QqlxLtSXjk_3ugFP-hrV-12" vertex="1">
          <mxGeometry y="26" width="160" height="8" as="geometry" />
        </mxCell>
        <mxCell id="QqlxLtSXjk_3ugFP-hrV-16" value="&lt;b&gt;Ball&lt;/b&gt;" style="swimlane;fontStyle=0;align=center;verticalAlign=top;childLayout=stackLayout;horizontal=1;startSize=26;horizontalStack=0;resizeParent=1;resizeParentMax=0;resizeLast=0;collapsible=1;marginBottom=0;whiteSpace=wrap;html=1;rounded=0;labelBackgroundColor=none;fillColor=#F2CC8F;strokeColor=#E07A5F;fontColor=#393C56;" parent="WIyWlLk6GJQsqaUBKTNV-1" vertex="1">
          <mxGeometry x="385" y="455" width="160" height="118" as="geometry" />
        </mxCell>
        <mxCell id="QqlxLtSXjk_3ugFP-hrV-17" value="- color: String&lt;div&gt;+ number: int&lt;/div&gt;" style="text;align=left;verticalAlign=top;spacingLeft=4;spacingRight=4;overflow=hidden;rotatable=0;points=[[0,0.5],[1,0.5]];portConstraint=eastwest;whiteSpace=wrap;html=1;rounded=0;labelBackgroundColor=none;fontStyle=0;" parent="QqlxLtSXjk_3ugFP-hrV-16" vertex="1">
          <mxGeometry y="26" width="160" height="44" as="geometry" />
        </mxCell>
        <mxCell id="QqlxLtSXjk_3ugFP-hrV-18" value="" style="line;strokeWidth=1;fillColor=none;align=left;verticalAlign=middle;spacingTop=-1;spacingLeft=3;spacingRight=3;rotatable=0;labelPosition=right;points=[];portConstraint=eastwest;strokeColor=#E07A5F;rounded=0;labelBackgroundColor=none;fontColor=#393C56;fontStyle=0" parent="QqlxLtSXjk_3ugFP-hrV-16" vertex="1">
          <mxGeometry y="70" width="160" height="8" as="geometry" />
        </mxCell>
        <mxCell id="QqlxLtSXjk_3ugFP-hrV-19" value="+ getColor(): String&lt;div&gt;+ setColor(String): void&lt;/div&gt;" style="text;align=left;verticalAlign=top;spacingLeft=4;spacingRight=4;overflow=hidden;rotatable=0;points=[[0,0.5],[1,0.5]];portConstraint=eastwest;whiteSpace=wrap;html=1;rounded=0;labelBackgroundColor=none;fontStyle=0;" parent="QqlxLtSXjk_3ugFP-hrV-16" vertex="1">
          <mxGeometry y="78" width="160" height="40" as="geometry" />
        </mxCell>
        <mxCell id="QqlxLtSXjk_3ugFP-hrV-21" value="" style="endArrow=block;html=1;rounded=0;endFill=0;labelBackgroundColor=none;strokeColor=#E07A5F;fontColor=default;strokeWidth=2;fontStyle=0" parent="WIyWlLk6GJQsqaUBKTNV-1" source="QqlxLtSXjk_3ugFP-hrV-16" target="QqlxLtSXjk_3ugFP-hrV-0" edge="1">
          <mxGeometry width="50" height="50" relative="1" as="geometry">
            <mxPoint x="195" y="595" as="sourcePoint" />
            <mxPoint x="245" y="545" as="targetPoint" />
          </mxGeometry>
        </mxCell>
        <mxCell id="QqlxLtSXjk_3ugFP-hrV-22" value="" style="endArrow=block;html=1;rounded=0;endFill=0;labelBackgroundColor=none;strokeColor=#E07A5F;fontColor=default;strokeWidth=2;fontStyle=0;edgeStyle=orthogonalEdgeStyle;" parent="WIyWlLk6GJQsqaUBKTNV-1" source="QqlxLtSXjk_3ugFP-hrV-8" target="QqlxLtSXjk_3ugFP-hrV-0" edge="1">
          <mxGeometry width="50" height="50" relative="1" as="geometry">
            <mxPoint x="275" y="429" as="sourcePoint" />
            <mxPoint x="395" y="374" as="targetPoint" />
            <Array as="points">
              <mxPoint x="160" y="325" />
            </Array>
          </mxGeometry>
        </mxCell>
        <mxCell id="QqlxLtSXjk_3ugFP-hrV-23" value="" style="endArrow=block;html=1;rounded=0;endFill=0;labelBackgroundColor=none;strokeColor=#E07A5F;fontColor=default;strokeWidth=2;fontStyle=0;edgeStyle=orthogonalEdgeStyle;" parent="WIyWlLk6GJQsqaUBKTNV-1" source="QqlxLtSXjk_3ugFP-hrV-12" target="QqlxLtSXjk_3ugFP-hrV-0" edge="1">
          <mxGeometry width="50" height="50" relative="1" as="geometry">
            <mxPoint x="475" y="455" as="sourcePoint" />
            <mxPoint x="475" y="381" as="targetPoint" />
            <Array as="points">
              <mxPoint x="695" y="325" />
            </Array>
          </mxGeometry>
        </mxCell>
        <mxCell id="QqlxLtSXjk_3ugFP-hrV-28" value="" style="endArrow=classic;html=1;rounded=0;labelBackgroundColor=none;strokeColor=#E07A5F;fontColor=default;strokeWidth=2;fontStyle=0;entryX=0.25;entryY=0;entryDx=0;entryDy=0;exitX=0.211;exitY=1.058;exitDx=0;exitDy=0;exitPerimeter=0;" parent="WIyWlLk6GJQsqaUBKTNV-1" source="QqlxLtSXjk_3ugFP-hrV-11" target="QqlxLtSXjk_3ugFP-hrV-4" edge="1">
          <mxGeometry width="50" height="50" relative="1" as="geometry">
            <mxPoint x="115" y="564" as="sourcePoint" />
            <mxPoint x="115" y="715" as="targetPoint" />
          </mxGeometry>
        </mxCell>
        <mxCell id="QqlxLtSXjk_3ugFP-hrV-29" value="- leftWheel: Wheel" style="edgeLabel;html=1;align=center;verticalAlign=middle;resizable=0;points=[];rounded=0;labelBackgroundColor=none;fontColor=#393C56;fontStyle=0" parent="QqlxLtSXjk_3ugFP-hrV-28" connectable="0" vertex="1">
          <mxGeometry x="-0.4919" relative="1" as="geometry">
            <mxPoint x="-55" y="42" as="offset" />
          </mxGeometry>
        </mxCell>
        <mxCell id="QqlxLtSXjk_3ugFP-hrV-30" value="1" style="edgeLabel;html=1;align=center;verticalAlign=middle;resizable=0;points=[];rounded=0;labelBackgroundColor=none;fontColor=#393C56;fontStyle=0" parent="QqlxLtSXjk_3ugFP-hrV-28" connectable="0" vertex="1">
          <mxGeometry x="-0.7851" y="-1" relative="1" as="geometry">
            <mxPoint x="11" y="6" as="offset" />
          </mxGeometry>
        </mxCell>
        <mxCell id="QqlxLtSXjk_3ugFP-hrV-31" value="1" style="edgeLabel;html=1;align=center;verticalAlign=middle;resizable=0;points=[];rounded=0;labelBackgroundColor=none;fontColor=#393C56;fontStyle=0" parent="QqlxLtSXjk_3ugFP-hrV-28" connectable="0" vertex="1">
          <mxGeometry x="0.5534" relative="1" as="geometry">
            <mxPoint x="13" y="12" as="offset" />
          </mxGeometry>
        </mxCell>
        <mxCell id="PfL0u-gfM9ihLVFZzfGR-6" value="" style="endArrow=classic;html=1;rounded=0;exitX=0;exitY=0;exitDx=0;exitDy=0;entryX=1;entryY=1;entryDx=0;entryDy=0;fillColor=#fa6800;strokeColor=#C73500;" parent="WIyWlLk6GJQsqaUBKTNV-1" source="PfL0u-gfM9ihLVFZzfGR-2" target="QqlxLtSXjk_3ugFP-hrV-8" edge="1">
          <mxGeometry width="50" height="50" relative="1" as="geometry">
            <mxPoint x="704" y="345" as="sourcePoint" />
            <mxPoint x="280" y="590" as="targetPoint" />
          </mxGeometry>
        </mxCell>
        <mxCell id="PfL0u-gfM9ihLVFZzfGR-8" value="- robots: List&amp;lt;Robot&amp;gt;" style="edgeLabel;html=1;align=center;verticalAlign=middle;resizable=0;points=[];" parent="PfL0u-gfM9ihLVFZzfGR-6" connectable="0" vertex="1">
          <mxGeometry x="-0.2152" y="-1" relative="1" as="geometry">
            <mxPoint x="47" y="-20" as="offset" />
          </mxGeometry>
        </mxCell>
        <mxCell id="PfL0u-gfM9ihLVFZzfGR-9" value="" style="endArrow=classic;html=1;rounded=0;fillColor=#fa6800;strokeColor=#C73500;" parent="WIyWlLk6GJQsqaUBKTNV-1" source="PfL0u-gfM9ihLVFZzfGR-2" target="QqlxLtSXjk_3ugFP-hrV-16" edge="1">
          <mxGeometry width="50" height="50" relative="1" as="geometry">
            <mxPoint x="445" y="495" as="sourcePoint" />
            <mxPoint x="495" y="445" as="targetPoint" />
          </mxGeometry>
        </mxCell>
        <mxCell id="PfL0u-gfM9ihLVFZzfGR-11" value="- balls: List&amp;lt;Ball&amp;gt;" style="edgeLabel;html=1;align=center;verticalAlign=middle;resizable=0;points=[];" parent="PfL0u-gfM9ihLVFZzfGR-9" connectable="0" vertex="1">
          <mxGeometry x="-0.415" y="-3" relative="1" as="geometry">
            <mxPoint x="42" y="-30" as="offset" />
          </mxGeometry>
        </mxCell>
        <mxCell id="PfL0u-gfM9ihLVFZzfGR-10" value="" style="endArrow=classic;html=1;rounded=0;exitX=1;exitY=0;exitDx=0;exitDy=0;fillColor=#fa6800;strokeColor=#C73500;" parent="WIyWlLk6GJQsqaUBKTNV-1" source="PfL0u-gfM9ihLVFZzfGR-2" target="QqlxLtSXjk_3ugFP-hrV-12" edge="1">
          <mxGeometry width="50" height="50" relative="1" as="geometry">
            <mxPoint x="445" y="405" as="sourcePoint" />
            <mxPoint x="495" y="355" as="targetPoint" />
          </mxGeometry>
        </mxCell>
        <mxCell id="PfL0u-gfM9ihLVFZzfGR-12" value="- holes: List&amp;lt;Hole&amp;gt;" style="edgeLabel;html=1;align=center;verticalAlign=middle;resizable=0;points=[];" parent="PfL0u-gfM9ihLVFZzfGR-10" connectable="0" vertex="1">
          <mxGeometry x="0.1773" relative="1" as="geometry">
            <mxPoint x="52" y="16" as="offset" />
          </mxGeometry>
        </mxCell>
        <mxCell id="PfL0u-gfM9ihLVFZzfGR-14" value="&lt;b&gt;Billard&lt;/b&gt;" style="swimlane;fontStyle=0;align=center;verticalAlign=top;childLayout=stackLayout;horizontal=1;startSize=26;horizontalStack=0;resizeParent=1;resizeParentMax=0;resizeLast=0;collapsible=1;marginBottom=0;whiteSpace=wrap;html=1;rounded=0;labelBackgroundColor=none;fillColor=#F2CC8F;strokeColor=#E07A5F;fontColor=#393C56;" parent="WIyWlLk6GJQsqaUBKTNV-1" vertex="1">
          <mxGeometry x="294" y="845" width="120" height="80" as="geometry" />
        </mxCell>
        <mxCell id="PfL0u-gfM9ihLVFZzfGR-15" value="" style="line;strokeWidth=1;fillColor=none;align=left;verticalAlign=middle;spacingTop=-1;spacingLeft=3;spacingRight=3;rotatable=0;labelPosition=right;points=[];portConstraint=eastwest;strokeColor=#E07A5F;rounded=0;labelBackgroundColor=none;fontColor=#393C56;fontStyle=0" parent="PfL0u-gfM9ihLVFZzfGR-14" vertex="1">
          <mxGeometry y="26" width="120" height="54" as="geometry" />
        </mxCell>
        <mxCell id="PfL0u-gfM9ihLVFZzfGR-17" value="" style="endArrow=block;html=1;rounded=0;endFill=0;labelBackgroundColor=none;strokeColor=#E07A5F;fontColor=default;strokeWidth=2;fontStyle=0;entryX=0;entryY=0.3;entryDx=0;entryDy=0;edgeStyle=orthogonalEdgeStyle;entryPerimeter=0;" parent="WIyWlLk6GJQsqaUBKTNV-1" source="PfL0u-gfM9ihLVFZzfGR-14" target="JiVwG-EkMutSp1eXOC8e-0" edge="1">
          <mxGeometry width="50" height="50" relative="1" as="geometry">
            <mxPoint x="705" y="415" as="sourcePoint" />
            <mxPoint x="705" y="315" as="targetPoint" />
          </mxGeometry>
        </mxCell>
        <mxCell id="PfL0u-gfM9ihLVFZzfGR-19" value="&lt;b&gt;Football&lt;/b&gt;" style="swimlane;fontStyle=0;align=center;verticalAlign=top;childLayout=stackLayout;horizontal=1;startSize=26;horizontalStack=0;resizeParent=1;resizeParentMax=0;resizeLast=0;collapsible=1;marginBottom=0;whiteSpace=wrap;html=1;rounded=0;labelBackgroundColor=none;fillColor=#F2CC8F;strokeColor=#E07A5F;fontColor=#393C56;" parent="WIyWlLk6GJQsqaUBKTNV-1" vertex="1">
          <mxGeometry x="560" y="845" width="120" height="80" as="geometry" />
        </mxCell>
        <mxCell id="PfL0u-gfM9ihLVFZzfGR-20" value="" style="line;strokeWidth=1;fillColor=none;align=left;verticalAlign=middle;spacingTop=-1;spacingLeft=3;spacingRight=3;rotatable=0;labelPosition=right;points=[];portConstraint=eastwest;strokeColor=#E07A5F;rounded=0;labelBackgroundColor=none;fontColor=#393C56;fontStyle=0" parent="PfL0u-gfM9ihLVFZzfGR-19" vertex="1">
          <mxGeometry y="26" width="120" height="54" as="geometry" />
        </mxCell>
        <mxCell id="PfL0u-gfM9ihLVFZzfGR-21" value="" style="endArrow=block;html=1;rounded=0;endFill=0;labelBackgroundColor=none;strokeColor=#E07A5F;fontColor=default;strokeWidth=2;fontStyle=0;edgeStyle=orthogonalEdgeStyle;exitX=0.5;exitY=0;exitDx=0;exitDy=0;entryX=1;entryY=0.278;entryDx=0;entryDy=0;entryPerimeter=0;" parent="WIyWlLk6GJQsqaUBKTNV-1" source="PfL0u-gfM9ihLVFZzfGR-19" target="JiVwG-EkMutSp1eXOC8e-0" edge="1">
          <mxGeometry width="50" height="50" relative="1" as="geometry">
            <mxPoint x="892" y="355" as="sourcePoint" />
            <mxPoint x="560" y="773" as="targetPoint" />
          </mxGeometry>
        </mxCell>
        <mxCell id="PfL0u-gfM9ihLVFZzfGR-22" value="" style="endArrow=classic;html=1;rounded=0;labelBackgroundColor=none;strokeColor=#E07A5F;fontColor=default;strokeWidth=2;fontStyle=0;entryX=0.75;entryY=0;entryDx=0;entryDy=0;exitX=0.789;exitY=0.961;exitDx=0;exitDy=0;exitPerimeter=0;" parent="WIyWlLk6GJQsqaUBKTNV-1" source="QqlxLtSXjk_3ugFP-hrV-11" target="QqlxLtSXjk_3ugFP-hrV-4" edge="1">
          <mxGeometry width="50" height="50" relative="1" as="geometry">
            <mxPoint x="185" y="564" as="sourcePoint" />
            <mxPoint x="185" y="715" as="targetPoint" />
          </mxGeometry>
        </mxCell>
        <mxCell id="PfL0u-gfM9ihLVFZzfGR-23" value="- rightWheel: Wheel" style="edgeLabel;html=1;align=center;verticalAlign=middle;resizable=0;points=[];rounded=0;labelBackgroundColor=none;fontColor=#393C56;fontStyle=0" parent="PfL0u-gfM9ihLVFZzfGR-22" connectable="0" vertex="1">
          <mxGeometry x="-0.4919" relative="1" as="geometry">
            <mxPoint x="55" y="46" as="offset" />
          </mxGeometry>
        </mxCell>
        <mxCell id="PfL0u-gfM9ihLVFZzfGR-24" value="1" style="edgeLabel;html=1;align=center;verticalAlign=middle;resizable=0;points=[];rounded=0;labelBackgroundColor=none;fontColor=#393C56;fontStyle=0" parent="PfL0u-gfM9ihLVFZzfGR-22" connectable="0" vertex="1">
          <mxGeometry x="-0.7851" y="-1" relative="1" as="geometry">
            <mxPoint x="11" y="6" as="offset" />
          </mxGeometry>
        </mxCell>
        <mxCell id="PfL0u-gfM9ihLVFZzfGR-2" value="&lt;b&gt;Table&lt;/b&gt;" style="swimlane;fontStyle=0;align=center;verticalAlign=top;childLayout=stackLayout;horizontal=1;startSize=26;horizontalStack=0;resizeParent=1;resizeParentMax=0;resizeLast=0;collapsible=1;marginBottom=0;whiteSpace=wrap;html=1;rounded=0;labelBackgroundColor=none;fillColor=#F2CC8F;strokeColor=#E07A5F;fontColor=#393C56;" parent="WIyWlLk6GJQsqaUBKTNV-1" vertex="1">
          <mxGeometry x="380" y="675" width="170" height="140" as="geometry" />
        </mxCell>
        <mxCell id="PfL0u-gfM9ihLVFZzfGR-4" value="" style="line;strokeWidth=1;fillColor=none;align=left;verticalAlign=middle;spacingTop=-1;spacingLeft=3;spacingRight=3;rotatable=0;labelPosition=right;points=[];portConstraint=eastwest;strokeColor=#E07A5F;rounded=0;labelBackgroundColor=none;fontColor=#393C56;fontStyle=0" parent="PfL0u-gfM9ihLVFZzfGR-2" vertex="1">
          <mxGeometry y="26" width="170" height="54" as="geometry" />
        </mxCell>
        <mxCell id="JiVwG-EkMutSp1eXOC8e-0" value="&lt;div&gt;&amp;nbsp;+ saveConfig() : void&lt;br&gt;&lt;/div&gt;&lt;div&gt;+ importConfig() : void&lt;/div&gt;&lt;div&gt;+notifyView() :: void&lt;/div&gt;" style="text;html=1;align=left;verticalAlign=middle;resizable=0;points=[];autosize=1;strokeColor=none;fillColor=none;" parent="PfL0u-gfM9ihLVFZzfGR-2" vertex="1">
          <mxGeometry y="80" width="170" height="60" as="geometry" />
        </mxCell>
        <mxCell id="PfL0u-gfM9ihLVFZzfGR-30" value="&lt;b&gt;Server&lt;/b&gt;" style="swimlane;fontStyle=0;align=center;verticalAlign=top;childLayout=stackLayout;horizontal=1;startSize=26;horizontalStack=0;resizeParent=1;resizeParentMax=0;resizeLast=0;collapsible=1;marginBottom=0;whiteSpace=wrap;html=1;rounded=0;labelBackgroundColor=none;fillColor=#F2CC8F;strokeColor=#E07A5F;fontColor=#393C56;" parent="WIyWlLk6GJQsqaUBKTNV-1" vertex="1">
          <mxGeometry x="660" y="685" width="160" height="148" as="geometry" />
        </mxCell>
        <mxCell id="PfL0u-gfM9ihLVFZzfGR-31" value="&lt;div&gt;+&amp;nbsp;delay : boolean&lt;/div&gt;&lt;div&gt;+ maxDelay : int &lt;br&gt;&lt;/div&gt;" style="text;align=left;verticalAlign=top;spacingLeft=4;spacingRight=4;overflow=hidden;rotatable=0;points=[[0,0.5],[1,0.5]];portConstraint=eastwest;whiteSpace=wrap;html=1;rounded=0;labelBackgroundColor=none;fontStyle=0;" parent="PfL0u-gfM9ihLVFZzfGR-30" vertex="1">
          <mxGeometry y="26" width="160" height="34" as="geometry" />
        </mxCell>
        <mxCell id="PfL0u-gfM9ihLVFZzfGR-32" value="" style="line;strokeWidth=1;fillColor=none;align=left;verticalAlign=middle;spacingTop=-1;spacingLeft=3;spacingRight=3;rotatable=0;labelPosition=right;points=[];portConstraint=eastwest;strokeColor=#E07A5F;rounded=0;labelBackgroundColor=none;fontColor=#393C56;fontStyle=0" parent="PfL0u-gfM9ihLVFZzfGR-30" vertex="1">
          <mxGeometry y="60" width="160" height="8" as="geometry" />
        </mxCell>
        <mxCell id="PfL0u-gfM9ihLVFZzfGR-33" value="&lt;div&gt;+ launch(scenario) : void&lt;/div&gt;&lt;div&gt;+ searchOptimalBall() : Ball&lt;/div&gt;&lt;div&gt;+ addDelay(int delay) : void&lt;br&gt;&lt;/div&gt;" style="text;align=left;verticalAlign=top;spacingLeft=4;spacingRight=4;overflow=hidden;rotatable=0;points=[[0,0.5],[1,0.5]];portConstraint=eastwest;whiteSpace=wrap;html=1;rounded=0;labelBackgroundColor=none;fontStyle=0;" parent="PfL0u-gfM9ihLVFZzfGR-30" vertex="1">
          <mxGeometry y="68" width="160" height="80" as="geometry" />
        </mxCell>
        <mxCell id="PfL0u-gfM9ihLVFZzfGR-34" style="edgeStyle=orthogonalEdgeStyle;rounded=0;orthogonalLoop=1;jettySize=auto;html=1;exitX=-0.01;exitY=0.73;exitDx=0;exitDy=0;exitPerimeter=0;fillColor=#fa6800;strokeColor=#C73500;" parent="WIyWlLk6GJQsqaUBKTNV-1" source="PfL0u-gfM9ihLVFZzfGR-31" edge="1">
          <mxGeometry relative="1" as="geometry">
            <mxPoint x="550" y="735" as="targetPoint" />
          </mxGeometry>
        </mxCell>
        <mxCell id="PZ_-78xCeFSfEvyK-wwx-0" value="1" style="edgeLabel;html=1;align=center;verticalAlign=middle;resizable=0;points=[];" parent="PfL0u-gfM9ihLVFZzfGR-34" connectable="0" vertex="1">
          <mxGeometry x="0.8498" y="-4" relative="1" as="geometry">
            <mxPoint y="-11" as="offset" />
          </mxGeometry>
        </mxCell>
        <mxCell id="PZ_-78xCeFSfEvyK-wwx-1" value="1" style="edgeLabel;html=1;align=center;verticalAlign=middle;resizable=0;points=[];" parent="PfL0u-gfM9ihLVFZzfGR-34" connectable="0" vertex="1">
          <mxGeometry x="-0.7752" relative="1" as="geometry">
            <mxPoint x="5" y="-15" as="offset" />
          </mxGeometry>
        </mxCell>
        <mxCell id="nRpZkQKghgk42VGaVbXb-1" value="- table: Table" style="edgeLabel;html=1;align=center;verticalAlign=middle;resizable=0;points=[];" parent="WIyWlLk6GJQsqaUBKTNV-1" connectable="0" vertex="1">
          <mxGeometry x="599.9987273578519" y="720.0037475536735" as="geometry" />
        </mxCell>
        <mxCell id="nRpZkQKghgk42VGaVbXb-2" value="1..*" style="edgeLabel;html=1;align=center;verticalAlign=middle;resizable=0;points=[];rounded=0;labelBackgroundColor=none;fontColor=#393C56;fontStyle=0" parent="WIyWlLk6GJQsqaUBKTNV-1" connectable="0" vertex="1">
          <mxGeometry x="234.91957423276722" y="606.993853056865" as="geometry">
            <mxPoint x="33" y="-39" as="offset" />
          </mxGeometry>
        </mxCell>
        <mxCell id="nRpZkQKghgk42VGaVbXb-3" value="1" style="edgeLabel;html=1;align=center;verticalAlign=middle;resizable=0;points=[];rounded=0;labelBackgroundColor=none;fontColor=#393C56;fontStyle=0" parent="WIyWlLk6GJQsqaUBKTNV-1" connectable="0" vertex="1">
          <mxGeometry x="244.91957423276722" y="616.993853056865" as="geometry">
            <mxPoint x="161" y="46" as="offset" />
          </mxGeometry>
        </mxCell>
        <mxCell id="nRpZkQKghgk42VGaVbXb-4" value="1" style="edgeLabel;html=1;align=center;verticalAlign=middle;resizable=0;points=[];rounded=0;labelBackgroundColor=none;fontColor=#393C56;fontStyle=0" parent="WIyWlLk6GJQsqaUBKTNV-1" connectable="0" vertex="1">
          <mxGeometry x="359.9995742327672" y="616.993853056865" as="geometry">
            <mxPoint x="161" y="46" as="offset" />
          </mxGeometry>
        </mxCell>
        <mxCell id="nRpZkQKghgk42VGaVbXb-5" value="1..*" style="edgeLabel;html=1;align=center;verticalAlign=middle;resizable=0;points=[];rounded=0;labelBackgroundColor=none;fontColor=#393C56;fontStyle=0" parent="WIyWlLk6GJQsqaUBKTNV-1" connectable="0" vertex="1">
          <mxGeometry x="489.9995742327672" y="460.00385305686495" as="geometry">
            <mxPoint x="161" y="46" as="offset" />
          </mxGeometry>
        </mxCell>
        <mxCell id="nRpZkQKghgk42VGaVbXb-6" value="1" style="edgeLabel;html=1;align=center;verticalAlign=middle;resizable=0;points=[];rounded=0;labelBackgroundColor=none;fontColor=#393C56;fontStyle=0" parent="WIyWlLk6GJQsqaUBKTNV-1" connectable="0" vertex="1">
          <mxGeometry x="319.9995742327672" y="616.993853056865" as="geometry">
            <mxPoint x="161" y="46" as="offset" />
          </mxGeometry>
        </mxCell>
        <mxCell id="nRpZkQKghgk42VGaVbXb-7" value="0..*" style="edgeLabel;html=1;align=center;verticalAlign=middle;resizable=0;points=[];rounded=0;labelBackgroundColor=none;fontColor=#393C56;fontStyle=0" parent="WIyWlLk6GJQsqaUBKTNV-1" connectable="0" vertex="1">
          <mxGeometry x="319.9995742327672" y="540.003853056865" as="geometry">
            <mxPoint x="161" y="46" as="offset" />
          </mxGeometry>
        </mxCell>
        <mxCell id="nRpZkQKghgk42VGaVbXb-8" value="1" style="edgeLabel;html=1;align=center;verticalAlign=middle;resizable=0;points=[];rounded=0;labelBackgroundColor=none;fontColor=#393C56;fontStyle=0" parent="WIyWlLk6GJQsqaUBKTNV-1" connectable="0" vertex="1">
          <mxGeometry x="128.0201885761345" y="720.0066478009818" as="geometry">
            <mxPoint x="104" y="-4" as="offset" />
          </mxGeometry>
        </mxCell>
        <mxCell id="nWqmys1zcj4ZzBEHY7ni-0" value="&lt;b&gt;VueSimulateur&lt;/b&gt;" style="swimlane;fontStyle=0;align=center;verticalAlign=top;childLayout=stackLayout;horizontal=1;startSize=26;horizontalStack=0;resizeParent=1;resizeParentMax=0;resizeLast=0;collapsible=1;marginBottom=0;whiteSpace=wrap;html=1;rounded=0;labelBackgroundColor=none;fillColor=#F2CC8F;strokeColor=#E07A5F;fontColor=#393C56;" parent="WIyWlLk6GJQsqaUBKTNV-1" vertex="1">
          <mxGeometry x="380" y="950" width="170" height="96" as="geometry" />
        </mxCell>
        <mxCell id="nWqmys1zcj4ZzBEHY7ni-1" value="" style="line;strokeWidth=1;fillColor=none;align=left;verticalAlign=middle;spacingTop=-1;spacingLeft=3;spacingRight=3;rotatable=0;labelPosition=right;points=[];portConstraint=eastwest;strokeColor=#E07A5F;rounded=0;labelBackgroundColor=none;fontColor=#393C56;fontStyle=0" parent="nWqmys1zcj4ZzBEHY7ni-0" vertex="1">
          <mxGeometry y="26" width="170" height="40" as="geometry" />
        </mxCell>
        <mxCell id="nWqmys1zcj4ZzBEHY7ni-2" value="&lt;div&gt;+update(table)&lt;/div&gt;" style="text;html=1;align=left;verticalAlign=middle;resizable=0;points=[];autosize=1;strokeColor=none;fillColor=none;" parent="nWqmys1zcj4ZzBEHY7ni-0" vertex="1">
          <mxGeometry y="66" width="170" height="30" as="geometry" />
        </mxCell>
        <mxCell id="nWqmys1zcj4ZzBEHY7ni-4" value="" style="endArrow=classic;html=1;rounded=0;fillColor=#fa6800;strokeColor=#C73500;" parent="WIyWlLk6GJQsqaUBKTNV-1" source="PfL0u-gfM9ihLVFZzfGR-2" target="nWqmys1zcj4ZzBEHY7ni-0" edge="1">
          <mxGeometry width="50" height="50" relative="1" as="geometry">
            <mxPoint x="610" y="1111" as="sourcePoint" />
            <mxPoint x="743" y="925" as="targetPoint" />
          </mxGeometry>
        </mxCell>
        <mxCell id="nWqmys1zcj4ZzBEHY7ni-5" value="- vue" style="edgeLabel;html=1;align=center;verticalAlign=middle;resizable=0;points=[];" parent="nWqmys1zcj4ZzBEHY7ni-4" connectable="0" vertex="1">
          <mxGeometry x="0.1773" relative="1" as="geometry">
            <mxPoint x="52" y="16" as="offset" />
          </mxGeometry>
        </mxCell>
        <mxCell id="Fysp7BTxDHZ7-hoIOvG2-0" value="1" style="edgeLabel;html=1;align=center;verticalAlign=middle;resizable=0;points=[];" parent="nWqmys1zcj4ZzBEHY7ni-4" connectable="0" vertex="1">
          <mxGeometry x="-0.6882" relative="1" as="geometry">
            <mxPoint as="offset" />
          </mxGeometry>
        </mxCell>
        <mxCell id="Fysp7BTxDHZ7-hoIOvG2-1" value="1&lt;div&gt;&lt;br&gt;&lt;/div&gt;" style="edgeLabel;html=1;align=center;verticalAlign=middle;resizable=0;points=[];" parent="nWqmys1zcj4ZzBEHY7ni-4" connectable="0" vertex="1">
          <mxGeometry x="0.8118" y="-4" relative="1" as="geometry">
            <mxPoint x="19" as="offset" />
          </mxGeometry>
        </mxCell>
      </root>
    </mxGraphModel>
  </diagram>
</mxfile>
